<?xml version="1.0" encoding="UTF-8"?>
<!DOCTYPE svg PUBLIC "-//W3C//DTD SVG 1.1//EN" "http://www.w3.org/Graphics/SVG/1.1/DTD/svg11.dtd">
<!-- Creator: CorelDRAW 2017 -->
<svg xmlns="http://www.w3.org/2000/svg" xml:space="preserve" width="3.33333in" height="0.357039in" version="1.1" style="shape-rendering:geometricPrecision; text-rendering:geometricPrecision; image-rendering:optimizeQuality; fill-rule:evenodd; clip-rule:evenodd"
viewBox="0 0 3333 357"
 xmlns:xlink="http://www.w3.org/1999/xlink">
 <defs>
  <style type="text/css">
   <![CDATA[
    .fil1 {fill:#2F5D8E;fill-rule:nonzero}
    .fil0 {fill:#D45E2C;fill-rule:nonzero}
   ]]>
  </style>
 </defs>
 <g id="Layer_x0020_1">
  <metadata id="CorelCorpID_0Corel-Layer"/>
  <g id="_2708396364544">
   <path class="fil0" d="M26 298l92 0 0 29 -92 0 0 29 -26 0 0 -87 26 0 0 29zm92 -134l-47 0 0 31 47 0 0 29 -118 0 0 -29 45 0 0 -31 -45 0 0 -29 118 0 0 29zm0 -81l-118 0 0 -80 26 0 0 51 20 0 0 -44 26 0 0 44 21 0 0 -51 26 0 0 80z"/>
   <path class="fil1" d="M342 80l0 62 130 0 0 77 -130 0 0 136 -86 0 0 -351 239 0 0 77 -152 0zm434 274l-16 -52 -108 0 -17 52 -90 0 128 -351 67 0 128 351 -90 0zm-69 -218l-32 94 61 0 -30 -94zm254 218l0 -351 86 0 0 351 -86 0zm394 0l-62 -131 -29 0 0 131 -86 0 0 -351 139 0c19,0 37,3 52,10 15,6 27,15 37,25 10,11 18,23 23,36 5,13 8,27 8,42 0,12 -2,23 -5,33 -3,10 -8,19 -13,26 -5,8 -12,14 -18,20 -7,6 -14,10 -20,13l76 146 -100 0zm-5 -239c0,-9 -3,-17 -10,-25 -7,-7 -16,-11 -28,-11l-49 0 0 71 49 0c12,0 21,-4 28,-11 7,-7 10,-15 10,-25z"/>
   <path class="fil0" d="M1781 80l0 274 -86 0 0 -274 -86 0 0 -77 259 0 0 77 -86 0zm374 274l-62 -131 -29 0 0 131 -86 0 0 -351 139 0c19,0 37,3 52,10 15,6 27,15 37,25 10,11 18,23 23,36 5,13 8,27 8,42 0,12 -2,23 -5,33 -3,10 -8,19 -13,26 -5,8 -12,14 -18,20 -7,6 -14,10 -20,13l76 146 -100 0zm-5 -239c0,-9 -3,-17 -10,-25 -7,-7 -16,-11 -28,-11l-49 0 0 71 49 0c12,0 21,-4 28,-11 7,-7 10,-15 10,-25zm469 115c0,19 -4,37 -11,52 -7,15 -17,29 -29,40 -12,11 -26,19 -43,25 -16,6 -33,9 -52,9 -18,0 -36,-3 -52,-9 -16,-6 -30,-14 -42,-25 -12,-11 -22,-24 -29,-40 -7,-15 -10,-33 -10,-52l0 -228 86 0 0 226c0,16 4,29 12,38 8,9 20,13 34,13 14,0 26,-4 35,-13 9,-9 13,-22 13,-38l0 -226 86 0 0 228zm360 16c0,18 -4,34 -11,47 -7,14 -17,25 -29,35 -12,9 -27,16 -43,21 -16,5 -34,7 -52,7 -13,0 -26,-1 -38,-2 -12,-1 -24,-4 -35,-7 -11,-3 -22,-8 -32,-14 -10,-6 -19,-13 -28,-23l55 -55c9,9 21,16 36,19 14,4 29,5 43,5 34,0 50,-11 50,-32 0,-9 -2,-16 -7,-21 -5,-5 -13,-8 -23,-9l-42 -6c-31,-5 -55,-15 -71,-31 -16,-16 -24,-40 -24,-71 0,-16 3,-31 9,-44 6,-13 14,-25 25,-35 11,-10 24,-18 40,-23 16,-6 34,-8 54,-8 25,0 48,3 67,10 19,6 36,17 52,32l-54 54c-6,-6 -12,-10 -18,-13 -6,-3 -12,-5 -18,-6 -6,-1 -12,-2 -17,-2 -5,0 -10,0 -14,0 -8,0 -14,1 -19,3 -5,2 -10,5 -13,8 -3,3 -6,7 -8,10 -2,4 -2,8 -2,12 0,2 0,5 1,8 1,3 3,6 5,8 2,2 5,4 9,6 4,2 9,3 15,4l42 6c31,4 54,14 69,29 10,9 16,20 20,33 4,13 6,27 6,44zm268 -167l0 274 -86 0 0 -274 -86 0 0 -77 259 0 0 77 -86 0z"/>
  </g>
 </g>
</svg>
